<mxfile host="Electron" modified="2023-04-14T14:30:06.152Z" agent="Mozilla/5.0 (X11; Linux x86_64) AppleWebKit/537.36 (KHTML, like Gecko) draw.io/21.1.2 Chrome/106.0.5249.199 Electron/21.4.3 Safari/537.36" etag="SDkPSsdXrk6bSxiIq9gm" version="21.1.2" type="device">
  <diagram name="Page-1" id="8G44pra1-FNCVcBNus4H">
    <mxGraphModel dx="1430" dy="852" grid="1" gridSize="10" guides="1" tooltips="1" connect="1" arrows="1" fold="1" page="1" pageScale="1" pageWidth="850" pageHeight="1100" math="0" shadow="0">
      <root>
        <mxCell id="0" />
        <mxCell id="1" parent="0" />
      </root>
    </mxGraphModel>
  </diagram>
</mxfile>
